<svg aria-hidden="true" xmlns="http://www.w3.org/2000/svg"><symbol id="icon-right" viewBox="0 0 32 32"><path d="m19.617 3.906 10.595 10.595a2.118 2.118 0 0 1 0 2.997L19.617 28.093a2.12 2.12 0 0 1-2.997-2.997l6.978-6.978H3.285a2.12 2.12 0 0 1 0-4.238h20.313L16.62 6.902c-.414-.414-.621-.956-.621-1.498s.207-1.085.621-1.498a2.118 2.118 0 0 1 2.997 0z"/></symbol><symbol id="icon-left" viewBox="0 0 32 32"><path d="m12.586 4.586-10 10a2 2 0 0 0 0 2.828l10 10a2 2 0 1 0 2.828-2.828L8.828 18H28a2 2 0 1 0 0-4H8.828l6.586-6.586a1.996 1.996 0 0 0 0-2.828 2 2 0 0 0-2.828 0z"/></symbol><symbol id="icon-user" viewBox="0 0 18 18"><path d="M9 9a3 3 0 1 0 0-6 3 3 0 1 0 0 6Zm0 1.5c-2.003 0-6 1.005-6 3v.75c0 .412.337.75.75.75h10.5c.412 0 .75-.338.75-.75v-.75c0-1.995-3.998-3-6-3Z"/></symbol><symbol id="icon-phone" viewBox="0 0 18 18"><path d="m13.996 11.123-1.838-.21a1.44 1.44 0 0 0-1.187.412l-1.332 1.332a10.888 10.888 0 0 1-4.769-4.77L6.21 6.55a1.44 1.44 0 0 0 .412-1.187l-.21-1.824a1.448 1.448 0 0 0-1.44-1.28H3.72c-.818 0-1.498.68-1.448 1.497.384 6.18 5.327 11.116 11.5 11.5.817.05 1.498-.63 1.498-1.448v-1.252a1.434 1.434 0 0 0-1.274-1.432Z"/></symbol><symbol id="icon-mail" viewBox="0 0 18 18"><path d="M15 3H3c-.825 0-1.492.675-1.492 1.5l-.008 9c0 .825.675 1.5 1.5 1.5h12c.825 0 1.5-.675 1.5-1.5v-9c0-.825-.675-1.5-1.5-1.5Zm-.3 3.188L9.398 9.502a.759.759 0 0 1-.796 0L3.3 6.188a.637.637 0 1 1 .675-1.08L9 8.25l5.025-3.143a.637.637 0 1 1 .675 1.08Z"/></symbol><symbol id="icon-check" viewBox="0 0 42 32"><path fill="#fff" style="fill:var(--color1,#fff);stroke:var(--color1,#fff)" stroke="#fff" stroke-width=".64" d="m6.263 15.205-.22-.21-3.307 3.132 11.651 11.114L38.864 5.89l-3.285-3.134-21.192 20.197-8.124-7.75z"/></symbol><symbol id="icon-close-modal" viewBox="0 0 32 32"><path d="m26.667 7.303-1.97-1.97-7.808 7.808-7.808-7.808-1.97 1.97 7.808 7.808-7.808 7.808 1.97 1.97 7.808-7.808 7.808 7.808 1.97-1.97-7.808-7.808 7.808-7.808z"/></symbol><symbol id="icon-visa" viewBox="0 0 36 28"><path d="M30.859 15.469h-2.156s.219-.578 1.031-2.797c-.016.016.219-.578.344-.953l.187.859c.484 2.391.594 2.891.594 2.891zM8.297 14.453l-.906-4.609C7.266 9.203 6.782 9 6.219 9H2.031L2 9.203c2.875.734 5.234 2.297 6.297 5.25zM11.094 9l-2.531 6.844-.266-1.391C7.75 13 6.422 11.656 4.922 11.047l2.109 7.969h2.734L13.843 9h-2.75zm2.172 10.031h2.594L17.485 9h-2.594zm12-9.781a6.451 6.451 0 0 0-2.328-.422c-2.562 0-4.359 1.359-4.375 3.313-.016 1.437 1.281 2.234 2.266 2.719 1.016.484 1.344.812 1.344 1.25 0 .672-.812.969-1.547.969-1.047 0-1.609-.125-2.438-.516l-.344-.172-.359 2.25c.609.281 1.719.531 2.891.531 2.719.016 4.484-1.344 4.516-3.422 0-1.141-.703-2-2.188-2.719-.906-.453-1.453-.781-1.453-1.25 0-.422.469-.859 1.484-.859.844-.016 1.469.156 1.937.375l.234.125zm6.64-.25h-2c-.625 0-1.094.187-1.359.844l-3.844 9.188h2.719c.438-1.234.547-1.5.547-1.5h3.313s.078.344.313 1.5h2.406zM36 4v20c0 1.094-.906 2-2 2H2c-1.094 0-2-.906-2-2V4c0-1.094.906-2 2-2h32c1.094 0 2 .906 2 2z"/></symbol><symbol id="icon-mastercard" viewBox="0 0 36 28"><path d="M17.484 5.328A7.97 7.97 0 0 0 13.093 4C8.702 4 5.14 7.563 5.14 11.938a7.955 7.955 0 0 0 7.953 7.953 7.97 7.97 0 0 0 4.391-1.328c-4.188-3.406-4.156-9.828 0-13.234zm.516.375c-4.031 3.172-4.047 9.328 0 12.484 4.047-3.156 4.031-9.312 0-12.484zm.516-.375c4.141 3.406 4.203 9.844 0 13.234a8.01 8.01 0 0 0 4.391 1.328 7.955 7.955 0 0 0 7.953-7.953c0-4.375-3.563-7.938-7.953-7.938a7.97 7.97 0 0 0-4.391 1.328zm11.578 11.281h.109v-.047h-.266v.047h.109v.266h.047v-.266zm.453.266h.063v-.313h-.078l-.094.203-.094-.203h-.078v.313h.047v-.234l.094.203h.063l.078-.203v.234zm-.125 6.875v.031h-.078v-.047h.078v.016zm0 .141h.047l-.063-.078c.031 0 .031-.016.047-.016.016-.016.016-.031.016-.047s0-.031-.016-.047c-.016 0-.031-.016-.063-.016h-.094v.203h.047v-.078h.016zm-19.719-1.063c0-.375.234-.672.641-.672.375 0 .625.297.625.672 0 .391-.25.672-.625.672-.406 0-.641-.297-.641-.672zm7.391-.687c.297 0 .5.172.547.5h-1.094c.047-.297.234-.5.547-.5zm5.562.687c0-.375.234-.672.625-.672s.641.297.641.672c0 .391-.25.672-.641.672s-.625-.297-.625-.672zm4.25 0c0-.375.25-.672.641-.672.375 0 .641.297.641.672 0 .391-.266.672-.641.672-.391 0-.641-.297-.641-.672zm2.469 1.125c-.016 0-.031 0-.063-.016-.016 0-.031-.016-.047-.031s-.031-.031-.031-.047-.016-.047-.016-.063 0-.047.016-.063c0-.031.016-.047.031-.063s.031-.016.047-.031.047-.016.063-.016.047 0 .063.016.047.016.063.031.016.031.031.063c0 .016.016.031.016.063 0 .016-.016.031-.016.063-.016.016-.016.031-.031.047s-.031.031-.063.031c-.016.016-.031.016-.063.016zm-21.016-.062h.469v-1.328c0-.5-.328-.828-.844-.844-.266 0-.547.078-.734.375-.141-.234-.375-.375-.703-.375a.717.717 0 0 0-.609.313v-.25h-.469v2.109h.469v-1.172c0-.375.203-.562.516-.562s.469.203.469.562v1.172h.453v-1.172c0-.375.219-.562.516-.562.313 0 .469.203.469.562v1.172zm2.594 0h.453v-2.109h-.453v.25a.841.841 0 0 0-.672-.313c-.594 0-1.047.469-1.047 1.109s.453 1.109 1.047 1.109c.297 0 .516-.109.672-.313v.266zm2.781-.641c0-.375-.281-.562-.734-.625l-.219-.031c-.203-.031-.359-.078-.359-.219s.141-.234.391-.234c.281 0 .531.094.672.172l.187-.375c-.219-.141-.516-.219-.859-.219-.531 0-.875.266-.875.688 0 .344.25.547.734.609l.203.031c.266.047.375.109.375.219 0 .172-.172.266-.484.266s-.547-.109-.703-.219l-.203.359c.25.172.562.266.906.266.609 0 .969-.281.969-.688zm2.032.531-.125-.391a.838.838 0 0 1-.406.109c-.234 0-.297-.141-.297-.344v-.953h.75v-.422h-.75v-.641h-.469v.641h-.438v.422h.438v.953c0 .484.187.781.734.781.187 0 .422-.063.562-.156zm1.343-2.062c-.609 0-1.047.453-1.047 1.109 0 .672.453 1.109 1.078 1.109.313 0 .609-.078.859-.297l-.219-.344a1.02 1.02 0 0 1-.609.234c-.297 0-.562-.141-.641-.516h1.578v-.187c0-.656-.406-1.109-1-1.109zm2.485 0a.593.593 0 0 0-.547.313v-.25h-.469v2.109h.469v-1.188c0-.344.141-.547.453-.547a.61.61 0 0 1 .281.063l.141-.438a.864.864 0 0 0-.328-.063zm.469 1.109c0 .641.438 1.109 1.125 1.109.313 0 .531-.063.75-.25l-.219-.375c-.172.125-.344.203-.547.187-.375 0-.641-.266-.641-.672s.266-.672.641-.672c.203 0 .375.063.547.187l.219-.375a1.117 1.117 0 0 0-.75-.25c-.688 0-1.125.469-1.125 1.109zm3.828 1.063h.469v-2.109h-.469v.25a.788.788 0 0 0-.656-.313c-.594 0-1.062.469-1.062 1.109s.469 1.109 1.062 1.109c.297 0 .516-.109.656-.313v.266zm2.078-2.172a.593.593 0 0 0-.547.313v-.25h-.453v2.109h.453v-1.188c0-.344.156-.547.453-.547a.61.61 0 0 1 .281.063l.141-.438a.814.814 0 0 0-.328-.063zm2.187 2.172h.453v-2.969h-.453v1.109c-.141-.187-.359-.313-.672-.313-.578 0-1.047.469-1.047 1.109s.469 1.109 1.047 1.109c.313 0 .531-.109.672-.313v.266zm1.219-.313c-.016 0-.047.016-.078.016a.228.228 0 0 0-.063.047c-.031.016-.047.047-.047.063-.016.031-.016.063-.016.094 0 .016 0 .047.016.078 0 .016.016.047.047.063.016.016.031.031.063.047s.063.016.078.016c.031 0 .063 0 .094-.016.016-.016.047-.031.063-.047s.031-.047.047-.063c.016-.031.016-.063.016-.078 0-.031 0-.063-.016-.094-.016-.016-.031-.047-.047-.063s-.047-.031-.063-.047c-.031 0-.063-.016-.094-.016zM36 4v20c0 1.094-.906 2-2 2H2c-1.094 0-2-.906-2-2V4c0-1.094.906-2 2-2h32c1.094 0 2 .906 2 2z"/></symbol><symbol id="icon-no-allergies" viewBox="0 0 24 24"><path d="M15.984 6q0-1.406 1.523-2.695t3.492-1.289v19.969h-2.484v-7.969h-2.531V6zm-4.968 3V2.016h1.969V9q0 1.594-1.078 2.742t-2.672 1.242v9H6.751v-9q-1.594-.094-2.672-1.242T3.001 9V2.016h2.016V9h1.969V2.016h2.016V9h2.016z"/></symbol><symbol id="icon-allergies" viewBox="0 0 24 24"><path d="M15.984 14.016V6q0-.656.398-1.359t1.078-1.313 1.594-.961 1.945-.352v16.172l-2.016-2.016v-2.156h-3zm4.5 9.281L10.031 12.844q-.281.094-.516.117t-.516.023v9H6.983v-9q-1.078 0-1.992-.539t-1.453-1.43-.539-2.016V5.811L.702 3.514l1.406-1.406 19.781 19.781zM6.188 9 5.016 7.828V9h1.172zM9 2.016H6.984v2.156L9 6.188V2.016zM12.984 9V2.016h-1.969v6.141l1.828 1.875q.094-.281.117-.516T12.983 9z"/></symbol></svg>