<svg version="1.0" xmlns="http://www.w3.org/2000/svg" width="504" height="504" viewBox="0 0 378 378"><path d="M181.5 60.1c-24.5 3.5-48.2 18.8-59.3 38.2-6.6 11.4-8 25.6-3.8 35.9l2.3 5.6-3.4.7c-7.8 1.4-16.6 13.9-16.6 23.4 0 12.2 9.3 20.2 22.6 19.7l4.4-.2L137 207c5.1 12.9 15.8 39.9 23.7 60 7.9 20.1 14.9 37.8 15.5 39.5 3.5 9 8.9 13.5 16.3 13.5 7 0 12.6-4.9 16-14 .9-2.5 2.1-5.4 2.5-6.5.5-1.1 5.9-14.8 12-30.5s11.6-29.4 12-30.5c.5-1.1 3.9-9.7 7.5-19 3.6-9.4 7.2-18.4 7.9-20 .8-1.7 2.8-7 4.6-11.8 2.9-7.8 6-12 7.7-10.4.9 1 7.8-1.5 11-4 4.9-3.8 8.6-12 7.8-17.4-1.3-8.4-8-16-15.5-17.5-2.1-.5-2.9-1.1-2.6-2.1.3-.7.9-5.5 1.2-10.6.8-11-.9-19-6.1-28.4-4-7.2-6.2-10.1-13-16.6-9.8-9.4-23.4-16.8-36-19.7-6.6-1.5-20.5-1.9-28-.9z"/></svg>