<svg aria-hidden="true" style="width:0;height:0;position:absolute;overflow:hidden" xmlns="http://www.w3.org/2000/svg"><defs><symbol id="icon-vector-right" viewBox="0 0 26 32"><path d="M2.282.115C1.616.461.893 1.264.487 2.112c-.41.861-.422 1.587-.032 2.33.182.349.515.755.851 1.046.138.118 3.286 2.525 6.992 5.344 3.709 2.822 6.742 5.146 6.742 5.168s-3.034 2.346-6.742 5.168c-4.848 3.623-7.123 5.375-9.391 7.136l2.399-1.792c-.339.294-.622.64-.841 1.027l-.01.019c-.39.742-.378 1.469.032 2.33.416.867 1.149 1.67 1.846 2.022.166.083.25.09 1.101.09h.922l.307-.154c.17-.086.432-.243.586-.349.742-.515 17.174-13.056 17.389-13.267a4.274 4.274 0 0 0 1.013-1.723l.008-.03a2.84 2.84 0 0 0-.004-1.239l.004.019a3.165 3.165 0 0 0-.233-.571l.009.018c-.339-.653-.294-.618-9.459-7.587 1.803 1.245-1.037-.925-3.883-3.087L5.25.503a5.965 5.965 0 0 0-.552-.332L4.664.155 4.357.001l-.931.003c-.915 0-.931.003-1.142.112z"/></symbol></defs></svg>