
<svg aria-hidden="true" xmlns="http://www.w3.org/2000/svg">

<symbol id="icon-right" viewBox="0 0 32 32">
<path d="M19.617 3.906l10.595 10.595c0.828 0.827 0.828 2.169 0 2.997l-10.595 10.595c-0.828 0.827-2.169 0.827-2.997 0s-0.828-2.169 0-2.997l6.978-6.978h-20.313c-1.17 0-2.119-0.949-2.119-2.119s0.949-2.119 2.119-2.119h20.313l-6.978-6.978c-0.414-0.414-0.621-0.956-0.621-1.498s0.207-1.085 0.621-1.498c0.828-0.828 2.169-0.828 2.997 0z"></path>
</symbol>

<symbol id="icon-left" viewBox="0 0 32 32">
<path d="M12.586 4.586l-10 10c-0.781 0.781-0.781 2.047 0 2.828l10 10c0.781 0.781 2.047 0.781 2.828 0s0.781-2.047 0-2.828l-6.586-6.586h19.172c1.105 0 2-0.895 2-2s-0.895-2-2-2h-19.172l6.586-6.586c0.39-0.391 0.586-0.902 0.586-1.414s-0.195-1.024-0.586-1.414c-0.781-0.781-2.047-0.781-2.828 0z"></path>
</symbol>

<symbol id="icon-user" viewBox="0 0 18 18">
  <path d="M9 9a3 3 0 1 0 0-6 3 3 0 1 0 0 6Zm0 1.5c-2.003 0-6 1.005-6 3v.75c0 .412.337.75.75.75h10.5c.412 0 .75-.338.75-.75v-.75c0-1.995-3.998-3-6-3Z"/>
</symbol>

<symbol id="icon-phone" viewBox="0 0 18 18">
  <path d="m13.996 11.123-1.838-.21a1.44 1.44 0 0 0-1.187.412l-1.332 1.332a10.888 10.888 0 0 1-4.769-4.77L6.21 6.55a1.44 1.44 0 0 0 .412-1.187l-.21-1.824a1.448 1.448 0 0 0-1.44-1.28H3.72c-.818 0-1.498.68-1.448 1.497.384 6.18 5.327 11.116 11.5 11.5.817.05 1.498-.63 1.498-1.448v-1.252a1.434 1.434 0 0 0-1.274-1.432Z"/>
</symbol>

<symbol id="icon-mail" viewBox="0 0 18 18">
  <path d="M15 3H3c-.825 0-1.492.675-1.492 1.5l-.008 9c0 .825.675 1.5 1.5 1.5h12c.825 0 1.5-.675 1.5-1.5v-9c0-.825-.675-1.5-1.5-1.5Zm-.3 3.188L9.398 9.502a.759.759 0 0 1-.796 0L3.3 6.188a.637.637 0 1 1 .675-1.08L9 8.25l5.025-3.143a.637.637 0 1 1 .675 1.08Z"/>
</symbol>

<symbol id="icon-check" viewBox="0 0 42 32">
<path fill="#fff" style="fill: var(--color1, #fff); stroke: var(--color1, #fff)" stroke="#fff" stroke-linejoin="miter" stroke-linecap="butt" stroke-miterlimit="4" stroke-width="0.64" d="M6.263 15.205l-0.22-0.21-3.307 3.132 11.651 11.114 24.477-23.351-3.285-3.134-21.192 20.197-8.124-7.75z"></path>
</symbol>

<symbol id="icon-close-modal" viewBox="0 0 32 32">
<path d="M26.667 7.303l-1.97-1.97-7.808 7.808-7.808-7.808-1.97 1.97 7.808 7.808-7.808 7.808 1.97 1.97 7.808-7.808 7.808 7.808 1.97-1.97-7.808-7.808 7.808-7.808z"></path>
</symbol>

</svg>