
<svg aria-hidden="true" xmlns="http://www.w3.org/2000/svg">

<symbol id="icon-right" viewBox="0 0 32 32">
<path d="M19.617 3.906l10.595 10.595c0.828 0.827 0.828 2.169 0 2.997l-10.595 10.595c-0.828 0.827-2.169 0.827-2.997 0s-0.828-2.169 0-2.997l6.978-6.978h-20.313c-1.17 0-2.119-0.949-2.119-2.119s0.949-2.119 2.119-2.119h20.313l-6.978-6.978c-0.414-0.414-0.621-0.956-0.621-1.498s0.207-1.085 0.621-1.498c0.828-0.828 2.169-0.828 2.997 0z"></path>
</symbol>

<symbol id="icon-left" viewBox="0 0 32 32">
<path d="M12.586 4.586l-10 10c-0.781 0.781-0.781 2.047 0 2.828l10 10c0.781 0.781 2.047 0.781 2.828 0s0.781-2.047 0-2.828l-6.586-6.586h19.172c1.105 0 2-0.895 2-2s-0.895-2-2-2h-19.172l6.586-6.586c0.39-0.391 0.586-0.902 0.586-1.414s-0.195-1.024-0.586-1.414c-0.781-0.781-2.047-0.781-2.828 0z"></path>
</symbol>

<symbol id="icon-elips" viewBox="0 0 133 32">
<path fill="#fff" style="fill: var(--color1, #fff)" d="M81.512 16c0 8.837-6.843 16-15.284 16s-15.284-7.163-15.284-16c0-8.837 6.843-16 15.284-16s15.284 7.163 15.284 16z"></path>
<path fill="#fff" style="fill: var(--color1, #fff)" d="M30.567 16c0 8.837-6.843 16-15.284 16s-15.284-7.163-15.284-16c0-8.837 6.843-16 15.284-16s15.284 7.163 15.284 16z"></path>
<path fill="#fff" style="fill: var(--color1, #fff)" d="M132.458 16c0 8.837-6.843 16-15.284 16s-15.284-7.163-15.284-16c0-8.837 6.843-16 15.284-16s15.284 7.163 15.284 16z"></path>
</symbol>

</svg>