<?xml version="1.0" standalone="no"?>
<!DOCTYPE svg PUBLIC "-//W3C//DTD SVG 20010904//EN"
 "http://www.w3.org/TR/2001/REC-SVG-20010904/DTD/svg10.dtd">
<svg version="1.0" xmlns="http://www.w3.org/2000/svg"
 width="378.000000pt" height="378.000000pt" viewBox="0 0 378.000000 378.000000"
 preserveAspectRatio="xMidYMid meet">
<metadata>
Created by potrace 1.14, written by Peter Selinger 2001-2017
</metadata>
<g transform="translate(0.000000,378.000000) scale(0.100000,-0.100000)"
fill="#000000" stroke="none">
<path d="M1815 3179 c-245 -35 -482 -188 -593 -382 -66 -114 -80 -256 -38
-359 l23 -56 -34 -7 c-78 -14 -166 -139 -166 -234 0 -122 93 -202 226 -197
l44 2 93 -236 c51 -129 158 -399 237 -600 79 -201 149 -378 155 -395 35 -90
89 -135 163 -135 70 0 126 49 160 140 9 25 21 54 25 65 5 11 59 148 120 305
61 157 116 294 120 305 5 11 39 97 75 190 36 94 72 184 79 200 8 17 28 70 46
118 29 78 60 120 77 104 9 -10 78 15 110 40 49 38 86 120 78 174 -13 84 -80
160 -155 175 -21 5 -29 11 -26 21 3 7 9 55 12 106 8 110 -9 190 -61 284 -40
72 -62 101 -130 166 -98 94 -234 168 -360 197 -66 15 -205 19 -280 9z"/>
</g>
</svg>
